<svg width="360" height="54" viewBox="0 0 360 54" fill="none" xmlns="http://www.w3.org/2000/svg">
<g clip-path="url(#clip0_497_737)">
<path d="M360 0.5H0V53.5H360V0.5Z" fill="url(#paint0_linear_497_737)"/>
<g opacity="0.6">
<path d="M300.15 31.6798C300.4 30.9598 301.17 30.6098 301.89 30.8498L310.82 34.0198C311.54 34.2698 311.89 35.0398 311.65 35.7598L309.61 41.4898C309.36 42.2098 308.59 42.5598 307.87 42.3198L298.94 39.1498C298.22 38.8998 297.87 38.1298 298.11 37.4098L300.15 31.6798Z" stroke="#BAC2CC" stroke-width="0.74" stroke-linecap="round" stroke-linejoin="round"/>
<path d="M303.79 31.5499L304.23 30.2799C304.48 29.5599 305.25 29.2099 305.97 29.4499L308.53 30.3599C309.25 30.6099 309.6 31.3799 309.36 32.0999L308.92 33.3699" stroke="#BAC2CC" stroke-width="0.74" stroke-linecap="round" stroke-linejoin="round"/>
<path opacity="0.7" d="M299.24 34.25C302.22 37.34 306.46 38.85 310.7 38.3" stroke="#BAC2CC" stroke-width="0.74" stroke-linecap="round" stroke-linejoin="round"/>
</g>
<g opacity="0.8">
<g opacity="0.7">
<path d="M219.22 14.5C218.99 14.02 219.19 13.45 219.67 13.22L225.72 10.34C226.2 10.11 226.77 10.31 227 10.79L228.85 14.68C229.08 15.16 228.88 15.73 228.4 15.96L222.35 18.84C221.87 19.07 221.3 18.87 221.07 18.39L219.22 14.5Z" stroke="#BAC2CC" stroke-width="0.52" stroke-linecap="round" stroke-linejoin="round"/>
<path d="M220.97 12.61L220.56 11.76C220.33 11.28 220.53 10.71 221.01 10.48L222.75 9.65005C223.23 9.42005 223.8 9.62005 224.03 10.1L224.44 10.95" stroke="#BAC2CC" stroke-width="0.52" stroke-linecap="round" stroke-linejoin="round"/>
</g>
<path opacity="0.7" d="M220.05 16.23C223.08 16.29 225.96 14.92 227.81 12.52" stroke="#BAC2CC" stroke-width="0.52" stroke-linecap="round" stroke-linejoin="round"/>
</g>
<g opacity="0.8">
<g opacity="0.7">
<path d="M171.17 35.2798C171.34 34.8598 171.82 34.6698 172.24 34.8498L177.46 37.0698C177.88 37.2398 178.07 37.7198 177.89 38.1398L176.46 41.4898C176.29 41.9098 175.81 42.0998 175.39 41.9198L170.17 39.6998C169.75 39.5298 169.56 39.0498 169.74 38.6298L171.17 35.2798Z" stroke="#BAC2CC" stroke-width="0.44" stroke-linecap="round" stroke-linejoin="round"/>
<path d="M173.35 35.3299L173.66 34.5899C173.83 34.1699 174.31 33.9799 174.73 34.1599L176.23 34.7999C176.65 34.9699 176.84 35.4499 176.66 35.8699L176.35 36.6099" stroke="#BAC2CC" stroke-width="0.44" stroke-linecap="round" stroke-linejoin="round"/>
</g>
<path opacity="0.7" d="M170.54 36.7798C172.21 38.7298 174.69 39.7998 177.25 39.6198" stroke="#BAC2CC" stroke-width="0.44" stroke-linecap="round" stroke-linejoin="round"/>
</g>
<g opacity="0.99">
<g opacity="0.7">
<path d="M141.03 15.7499C140.8 15.4699 140.84 15.0699 141.12 14.8399L144.61 11.9899C144.89 11.7599 145.29 11.7999 145.52 12.0799L147.35 14.3199C147.58 14.5999 147.54 14.9999 147.26 15.2299L143.77 18.0799C143.49 18.3099 143.09 18.2699 142.86 17.9899L141.03 15.7499Z" stroke="#BAC2CC" stroke-width="0.35" stroke-linecap="round" stroke-linejoin="round"/>
<path d="M141.87 14.24L141.46 13.75C141.23 13.47 141.27 13.07 141.55 12.84L142.55 12.02C142.83 11.79 143.23 11.83 143.46 12.11L143.87 12.6" stroke="#BAC2CC" stroke-width="0.35" stroke-linecap="round" stroke-linejoin="round"/>
</g>
<path opacity="0.7" d="M141.85 16.7599C143.84 16.3099 145.5 14.9599 146.32 13.0999" stroke="#BAC2CC" stroke-width="0.35" stroke-linecap="round" stroke-linejoin="round"/>
</g>
<g opacity="0.6">
<path d="M343.35 29.1101C343.18 28.6101 343.46 28.0601 343.96 27.9001L350.3 25.7801C350.8 25.6101 351.35 25.8901 351.51 26.3901L352.89 30.4701C353.06 30.9701 352.78 31.5201 352.28 31.6801L345.94 33.8001C345.44 33.9701 344.89 33.6901 344.73 33.1901L343.35 29.1101Z" stroke="#BAC2CC" stroke-width="0.74" stroke-linecap="round" stroke-linejoin="round"/>
<path d="M345.31 27.45L345.01 26.54C344.84 26.04 345.12 25.49 345.62 25.33L347.44 24.72C347.94 24.55 348.49 24.83 348.65 25.33L348.95 26.24" stroke="#BAC2CC" stroke-width="0.74" stroke-linecap="round" stroke-linejoin="round"/>
<path d="M343.96 30.9199C346.96 31.3299 349.97 30.3399 352.09 28.1699" stroke="#BAC2CC" stroke-width="0.74" stroke-linecap="round" stroke-linejoin="round"/>
</g>
<g opacity="0.6">
<path d="M269.81 17.7798C269.92 17.4498 270.28 17.2798 270.58 17.3898L274.63 18.8198C274.96 18.9298 275.13 19.2898 275.02 19.5898L274.08 22.2098C273.97 22.5398 273.61 22.7098 273.31 22.5998L269.26 21.1698C268.93 21.0598 268.76 20.6998 268.87 20.3998L269.81 17.7798Z" stroke="#BAC2CC" stroke-width="0.55" stroke-linecap="round" stroke-linejoin="round"/>
<path d="M271.46 17.6999L271.65 17.1199C271.76 16.7899 272.12 16.6199 272.42 16.7299L273.58 17.1399C273.91 17.2499 274.08 17.6099 273.97 17.9099L273.78 18.4899" stroke="#BAC2CC" stroke-width="0.55" stroke-linecap="round" stroke-linejoin="round"/>
<path d="M269.42 18.9399C270.77 20.3399 272.7 21.0299 274.63 20.7899" stroke="#BAC2CC" stroke-width="0.55" stroke-linecap="round" stroke-linejoin="round"/>
</g>
<g opacity="0.3">
<path d="M89.44 23.5801C89.27 24.0801 88.72 24.3501 88.23 24.1901L81.89 22.0701C81.39 21.9001 81.12 21.3501 81.28 20.8601L82.66 16.7801C82.83 16.2801 83.38 16.0101 83.87 16.1701L90.21 18.2901C90.71 18.4601 90.98 19.0101 90.82 19.5001L89.44 23.5801Z" stroke="#7F858C" stroke-width="0.55" stroke-linecap="round" stroke-linejoin="round"/>
<path d="M85.25 16.61L85.55 15.7C85.72 15.2 86.27 14.93 86.76 15.09L88.58 15.7C89.08 15.87 89.35 16.42 89.19 16.91L88.89 17.82" stroke="#7F858C" stroke-width="0.55" stroke-linecap="round" stroke-linejoin="round"/>
<path d="M85.25 16.61L85.55 15.7C85.72 15.2 86.27 14.93 86.76 15.09L88.58 15.7C89.08 15.87 89.35 16.42 89.19 16.91L88.89 17.82" stroke="#7F858C" stroke-width="0.55" stroke-linecap="round" stroke-linejoin="round"/>
<path d="M82.05 18.5701C84.17 20.7201 87.2 21.7401 90.18 21.3201" stroke="#7F858C" stroke-width="0.55" stroke-linecap="round" stroke-linejoin="round"/>
</g>
<g opacity="0.5">
<path opacity="0.7" d="M61.24 38.53C61.35 38.86 61.18 39.19 60.85 39.3L56.8 40.73C56.47 40.84 56.14 40.67 56.03 40.34L55.09 37.72C54.98 37.39 55.15 37.06 55.48 36.95L59.53 35.52C59.86 35.41 60.19 35.58 60.3 35.91L61.24 38.53Z" stroke="#7F858C" stroke-width="0.55" stroke-linecap="round" stroke-linejoin="round"/>
<path opacity="0.7" d="M56.37 36.62L56.18 36.04C56.07 35.71 56.24 35.38 56.57 35.27L57.73 34.86C58.06 34.75 58.39 34.92 58.5 35.25L58.69 35.83" stroke="#7F858C" stroke-width="0.55" stroke-linecap="round" stroke-linejoin="round"/>
<path opacity="0.7" d="M55.51 38.9401C57.44 39.1901 59.37 38.5001 60.72 37.0901" stroke="#7F858C" stroke-width="0.55" stroke-linecap="round" stroke-linejoin="round"/>
</g>
<g opacity="0.9">
<path d="M11.51 24.75C11.34 25.25 10.79 25.52 10.3 25.36L3.95999 23.24C3.45999 23.07 3.18999 22.52 3.34999 22.03L4.72999 17.95C4.89999 17.45 5.44999 17.18 5.93999 17.34L12.28 19.46C12.78 19.63 13.05 20.18 12.89 20.67L11.51 24.75Z" stroke="#C8D0DB" stroke-width="0.55" stroke-linecap="round" stroke-linejoin="round"/>
<path d="M7.31995 17.7799L7.61995 16.8699C7.78995 16.3699 8.33995 16.0999 8.82995 16.2599L10.6499 16.8699C11.1499 17.0399 11.4199 17.5899 11.2599 18.0799L10.9599 18.9899" stroke="#C8D0DB" stroke-width="0.55" stroke-linecap="round" stroke-linejoin="round"/>
<path d="M4.13 19.73C6.25 21.88 9.28 22.9 12.26 22.48" stroke="#C8D0DB" stroke-width="0.55" stroke-linecap="round" stroke-linejoin="round"/>
</g>
</g>
<defs>
<linearGradient id="paint0_linear_497_737" x1="180" y1="24.88" x2="180" y2="80" gradientUnits="userSpaceOnUse">
<stop stop-color="#E7FFF6"/>
<stop offset="1" stop-color="white" stop-opacity="0"/>
</linearGradient>
<clipPath id="clip0_497_737">
<rect width="360" height="53" fill="white" transform="translate(0 0.5)"/>
</clipPath>
</defs>
</svg>
